<svg xmlns="http://www.w3.org/2000/svg" xmlns:xlink="http://www.w3.org/1999/xlink" width="156" height="32" viewBox="0 0 156 32">
    <defs>
        <filter id="6th97huaxb" width="131%" height="120.4%" x="-15.5%" y="-10.2%" filterUnits="objectBoundingBox">
            <feOffset dy="-1" in="SourceAlpha" result="shadowOffsetInner1"/>
            <feComposite in="shadowOffsetInner1" in2="SourceAlpha" k2="-1" k3="1" operator="arithmetic" result="shadowInnerInner1"/>
            <feColorMatrix in="shadowInnerInner1" values="0 0 0 0 0 0 0 0 0 0 0 0 0 0 0 0 0 0 0.08 0"/>
        </filter>
        <filter id="u60rdniicd" width="174.5%" height="119.9%" x="-37.2%" y="-9.9%" filterUnits="objectBoundingBox">
            <feOffset dy="-1" in="SourceAlpha" result="shadowOffsetInner1"/>
            <feComposite in="shadowOffsetInner1" in2="SourceAlpha" k2="-1" k3="1" operator="arithmetic" result="shadowInnerInner1"/>
            <feColorMatrix in="shadowInnerInner1" values="0 0 0 0 0 0 0 0 0 0 0 0 0 0 0 0 0 0 0.08 0"/>
        </filter>
        <filter id="lfbiloscqf" width="125.7%" height="126.5%" x="-12.8%" y="-13.2%" filterUnits="objectBoundingBox">
            <feOffset dy="-1" in="SourceAlpha" result="shadowOffsetInner1"/>
            <feComposite in="shadowOffsetInner1" in2="SourceAlpha" k2="-1" k3="1" operator="arithmetic" result="shadowInnerInner1"/>
            <feColorMatrix in="shadowInnerInner1" values="0 0 0 0 0 0 0 0 0 0 0 0 0 0 0 0 0 0 0.08 0"/>
        </filter>
        <filter id="xeywmbopsh" width="129.2%" height="128.1%" x="-14.6%" y="-14.1%" filterUnits="objectBoundingBox">
            <feOffset dy="-1" in="SourceAlpha" result="shadowOffsetInner1"/>
            <feComposite in="shadowOffsetInner1" in2="SourceAlpha" k2="-1" k3="1" operator="arithmetic" result="shadowInnerInner1"/>
            <feColorMatrix in="shadowInnerInner1" values="0 0 0 0 0 0 0 0 0 0 0 0 0 0 0 0 0 0 0.08 0"/>
        </filter>
        <filter id="jzkapbv9tj" width="128.6%" height="119.9%" x="-14.3%" y="-9.9%" filterUnits="objectBoundingBox">
            <feOffset dy="-1" in="SourceAlpha" result="shadowOffsetInner1"/>
            <feComposite in="shadowOffsetInner1" in2="SourceAlpha" k2="-1" k3="1" operator="arithmetic" result="shadowInnerInner1"/>
            <feColorMatrix in="shadowInnerInner1" values="0 0 0 0 0 0 0 0 0 0 0 0 0 0 0 0 0 0 0.08 0"/>
        </filter>
        <filter id="kqp4qhk5il" width="127.6%" height="119.9%" x="-13.8%" y="-9.9%" filterUnits="objectBoundingBox">
            <feOffset dy="-1" in="SourceAlpha" result="shadowOffsetInner1"/>
            <feComposite in="shadowOffsetInner1" in2="SourceAlpha" k2="-1" k3="1" operator="arithmetic" result="shadowInnerInner1"/>
            <feColorMatrix in="shadowInnerInner1" values="0 0 0 0 0 0 0 0 0 0 0 0 0 0 0 0 0 0 0.08 0"/>
        </filter>
        <filter id="zlx1ua4c2n" width="128.6%" height="127.6%" x="-14.3%" y="-13.8%" filterUnits="objectBoundingBox">
            <feOffset dy="-1" in="SourceAlpha" result="shadowOffsetInner1"/>
            <feComposite in="shadowOffsetInner1" in2="SourceAlpha" k2="-1" k3="1" operator="arithmetic" result="shadowInnerInner1"/>
            <feColorMatrix in="shadowInnerInner1" values="0 0 0 0 0 0 0 0 0 0 0 0 0 0 0 0 0 0 0.08 0"/>
        </filter>
        <filter id="4i0zifsynp" width="135.5%" height="128.6%" x="-17.7%" y="-14.3%" filterUnits="objectBoundingBox">
            <feOffset dy="-1" in="SourceAlpha" result="shadowOffsetInner1"/>
            <feComposite in="shadowOffsetInner1" in2="SourceAlpha" k2="-1" k3="1" operator="arithmetic" result="shadowInnerInner1"/>
            <feColorMatrix in="shadowInnerInner1" values="0 0 0 0 0 0 0 0 0 0 0 0 0 0 0 0 0 0 0.08 0"/>
        </filter>
        <filter id="tn091kp5kr" width="119.6%" height="128.1%" x="-9.8%" y="-14.1%" filterUnits="objectBoundingBox">
            <feOffset dy="-1" in="SourceAlpha" result="shadowOffsetInner1"/>
            <feComposite in="shadowOffsetInner1" in2="SourceAlpha" k2="-1" k3="1" operator="arithmetic" result="shadowInnerInner1"/>
            <feColorMatrix in="shadowInnerInner1" values="0 0 0 0 0 0 0 0 0 0 0 0 0 0 0 0 0 0 0.08 0"/>
        </filter>
        <path id="rodd44muna" d="M12.305 21.818c.447 0 .834-.165 1.164-.494.33-.33.495-.718.495-1.164v-1.338c0-.446-.165-.834-.495-1.164-.33-.33-.717-.494-1.164-.494H6.08c-.175 0-.262-.088-.262-.262v-3.578c0-.156.087-.233.262-.233h5.644c.446 0 .834-.165 1.163-.495.33-.33.495-.717.495-1.163v-1.048c0-.446-.165-.833-.495-1.163-.33-.33-.717-.495-1.163-.495H6.08c-.175 0-.262-.087-.262-.262V5.47c0-.155.087-.233.262-.233h6.225c.447 0 .834-.164 1.164-.494.33-.33.495-.718.495-1.164V2.24c0-.446-.165-.834-.495-1.164-.33-.33-.717-.494-1.164-.494H1.658c-.446 0-.834.165-1.163.494C.165 1.406 0 1.794 0 2.24v17.92c0 .446.165.834.495 1.164.33.33.717.494 1.163.494h10.647z"/>
        <path id="eox1gfv2ec" d="M20.007 21.818c.446 0 .834-.165 1.164-.494.33-.33.494-.718.494-1.164V1.658c0-.446-.164-.834-.494-1.163C20.84.165 20.453 0 20.007 0h-2.502c-.446 0-.833.165-1.163.495-.33.33-.495.717-.495 1.163V20.16c0 .446.165.834.495 1.164.33.33.717.494 1.163.494h2.502z"/>
        <path id="yzi7b5rrme" d="M34.388 6.75c.623-.263 1.213.525 1.213.525 1.116-.296 1.838.492 2.133 1.148 1.247-.197 2.002 1.181 1.772 2.034l.037.024c.148.103.696.527.554 1.125.82.656.459 1.771.295 2.132.492.788.263 1.247-.262 1.87.459.985.032 2.002-.854 2.265 0 0 .296 1.575-1.28 1.903-.59 1.444-2.1 1.247-2.1 1.247l-.01.023-.036.062c-.16.265-.751 1.03-2.119.702-.722.886-2.067.591-2.724-.065-.786.656-1.613.254-2.361-.296-.447-.327-1.109-.034-1.694-.49.166-.392.28-.912.465-1.717.045-.2.215-.388.406-.468.975-.408 2.168.586 3.457-.707.259-.234.545-.776.612-1.388.08-.686.049-1.013.617-1.658.91.303 2.219-.13 3.246-1.158 1.28-1.282 1.64-3 .802-3.84-.838-.837-2.555-.478-3.835.803-1.034 1.036-1.466 2.357-1.152 3.268-1.294 1.647-.517 2.357-1.134 3.223-.406.57-1.596.348-2.055.369-1.254.055-1.815.836-1.893 1.952-.02.282-.054.516-.107.716-.264-.291-.356-.352-.689-.447-.459-.131-.787-.427-.853-1.542-.066-.755-.722-.361-.755-1.641-.005-.192-.007-.348-.007-.475v-.444c-.004-.229-.032-.229-.19-.524-.262-.492-.065-.755.066-1.28s-.295-1.247.36-1.969c.243-.282.274-.404.278-.6v-.166c0-.093.003-.206.018-.35.066-.623.328-.623.624-.918.23-.262.131-1.05 1.148-1.608.558-.262.558-.328.853-.623.296-.296.92-.492 1.444-.492 0 0 .82-1.28 2.494-.886 1.345-.624 2.56-.493 3.216.36z"/>
        <path id="g66t7u9wsg" d="M46.575 21.818c.446 0 .833-.165 1.163-.494.33-.33.495-.718.495-1.164V12.8c0-.504.228-.97.683-1.396.456-.427.956-.64 1.499-.64.659 0 1.115.164 1.367.494.252.33.378.94.378 1.833v7.069c0 .446.165.834.495 1.164.33.33.717.494 1.163.494h2.066c.446 0 .834-.165 1.163-.494.33-.33.495-.718.495-1.164v-7.07c0-2.443-.383-4.169-1.15-5.177-.765-1.009-2.03-1.513-3.796-1.513-1.764 0-3.248.727-4.45 2.182 0 .02-.02.029-.059.029-.02 0-.029-.01-.029-.03V8.35c-.02-.465-.194-.858-.523-1.178-.33-.32-.728-.48-1.193-.48h-1.978c-.446 0-.834.165-1.164.494-.33.33-.495.718-.495 1.164V20.16c0 .446.165.834.495 1.164.33.33.718.494 1.164.494h2.21z"/>
        <path id="eibvx2au0i" d="M69.585 22.11c5.528 0 8.291-2.134 8.291-6.4 0-1.843-.533-3.317-1.6-4.423-1.066-1.105-2.957-2.055-5.672-2.85-1.3-.389-1.95-1.067-1.95-2.037 0-1.105.796-1.658 2.386-1.658 1.416 0 2.987.281 4.713.843.388.136.742.093 1.062-.13.32-.223.48-.529.48-.917V3.113c0-.505-.146-.965-.437-1.382-.29-.417-.669-.693-1.134-.83-1.455-.406-3.113-.61-4.975-.61-2.599 0-4.582.543-5.949 1.629-1.367 1.086-2.05 2.58-2.05 4.48 0 1.765.566 3.244 1.7 4.436 1.135 1.193 2.992 2.187 5.572 2.982.717.233 1.212.495 1.483.786.272.29.408.708.408 1.25 0 1.164-.873 1.746-2.618 1.746-1.494 0-3.007-.359-4.539-1.076-.33-.156-.65-.146-.96.029-.31.174-.465.446-.465.814v1.484c0 .524.13 1.008.393 1.454.261.447.615.757 1.061.931 1.436.582 3.036.873 4.8.873z"/>
        <path id="aajgcrks4k" d="M89.796 6.4c1.785 0 3.2.674 4.248 2.022 1.047 1.348 1.57 3.292 1.57 5.833 0 2.482-.547 4.412-1.643 5.789-1.096 1.377-2.487 2.065-4.175 2.065-1.532 0-2.957-.582-4.276-1.745-.02-.02-.039-.03-.058-.03-.02 0-.03.01-.03.03v6.196c0 .446-.164.834-.494 1.164-.33.33-.717.494-1.163.494h-2.211c-.446 0-.834-.165-1.164-.494-.33-.33-.495-.718-.495-1.164V8.35c0-.447.165-.835.495-1.165.33-.33.718-.494 1.164-.494h1.978c.465 0 .863.16 1.193.48.33.32.504.713.523 1.178v.233c0 .02.01.029.03.029.019 0 .038-.01.057-.03C86.548 7.128 88.032 6.4 89.796 6.4zm-2.036 4.073c-.62 0-1.188.232-1.702.698-.514.465-.77.96-.77 1.484v3.2c0 .523.256 1.018.77 1.483.514.466 1.081.698 1.702.698.756 0 1.358-.315 1.804-.945.446-.63.669-1.576.669-2.836 0-2.522-.825-3.782-2.473-3.782z"/>
        <path id="b0hd9jxtem" d="M105.39 6.4c4.925 0 7.398 2.599 7.417 7.796 0 .466-.174.859-.523 1.179-.35.32-.766.48-1.251.48h-7.622c-.175 0-.243.087-.204.261.175.815.558 1.387 1.15 1.717.59.33 1.517.494 2.778.494.795 0 1.764-.116 2.909-.349.407-.097.775-.014 1.105.247.33.262.495.607.495 1.033v.466c0 .484-.15.926-.451 1.323-.3.398-.684.635-1.15.713-1.182.233-2.443.35-3.781.35-2.754 0-4.873-.675-6.357-2.023-1.483-1.348-2.225-3.292-2.225-5.832 0-2.522.66-4.461 1.978-5.819 1.319-1.357 3.23-2.036 5.731-2.036zm.145 3.636c-.757 0-1.324.19-1.702.568-.378.378-.616 1.032-.713 1.963 0 .155.078.233.233.233h4.102c.174 0 .261-.087.261-.262-.019-.892-.208-1.532-.567-1.92-.359-.388-.897-.582-1.614-.582z"/>
        <path id="i6zxv9xrgo" d="M118.887 21.818c.446 0 .834-.165 1.164-.494.33-.33.494-.718.494-1.164v-4.305c0-1.32.447-2.44 1.339-3.36.892-.922 2.084-1.48 3.578-1.673.465-.058.853-.247 1.163-.567.31-.32.466-.703.466-1.15V8.35c0-.465-.165-.863-.495-1.193-.33-.33-.717-.465-1.163-.407-2.075.272-3.724 1.212-4.946 2.822-.02.02-.039.029-.058.029-.02 0-.029-.01-.029-.03V8.35c0-.447-.165-.835-.495-1.165-.33-.33-.717-.494-1.163-.494h-2.211c-.446 0-.834.165-1.164.494-.33.33-.494.718-.494 1.164V20.16c0 .446.165.834.494 1.164.33.33.718.494 1.164.494h2.356z"/>
        <path id="5wmmppm12q" d="M132.953 21.818c.446 0 .834-.165 1.163-.494.33-.33.495-.718.495-1.164v-8.524c0-.232.17-.475.509-.727.34-.252.703-.378 1.09-.378.505 0 .854.116 1.048.349.194.233.291.679.291 1.338v7.942c0 .446.16.834.48 1.164.32.33.703.494 1.15.494h2.065c.446 0 .834-.165 1.163-.494.33-.33.495-.718.495-1.164v-8.524c0-.232.17-.475.509-.727.34-.252.703-.378 1.09-.378.505 0 .854.116 1.048.349.194.233.291.679.291 1.338v7.942c0 .446.16.834.48 1.164.32.33.703.494 1.15.494h2.065c.446 0 .833-.165 1.163-.494.33-.33.495-.718.495-1.164v-7.942c0-2.075-.383-3.563-1.15-4.465-.765-.902-1.982-1.353-3.65-1.353-1.377 0-2.783.718-4.218 2.153-.02.02-.049.029-.088.029-.02 0-.029-.01-.029-.03-.485-.814-.994-1.376-1.527-1.687-.533-.31-1.246-.465-2.138-.465-.698 0-1.411.204-2.138.61-.728.408-1.353.97-1.877 1.688 0 .02-.02.03-.058.03-.02 0-.03-.01-.03-.03l-.028-.349c-.039-.465-.223-.858-.553-1.178-.33-.32-.727-.48-1.193-.48h-1.774c-.446 0-.834.165-1.164.494-.33.33-.494.718-.494 1.164V20.16c0 .446.164.834.494 1.164.33.33.718.494 1.164.494h2.21z"/>
    </defs>
    <g fill="none" fill-rule="evenodd">
        <g>
            <g>
                <g>
                    <path fill="#FFF" d="M17.098 2.915H3.642l-.859 16.51h34.226l11.224.735h5.177l1.151-10.589-23.21-1.031-11.754 2.997-2.499-8.622zM79.905 6.69c-.544 0-3.003-.791-7.378-2.376-3.694.46-5.54.857-5.54 1.188 0 .332 2.153 3.25 6.459 8.753L87.76 20.16h28.771c-.314-6.119-.867-9.105-1.658-8.96-.792.145-11.648-.242-32.568-1.164-1.056-2.23-1.855-3.345-2.4-3.345z" transform="translate(-160 -24) translate(160 24) translate(1.942 1.818)"/>
                    <g fill-rule="nonzero" stroke-linejoin="round" transform="translate(-160 -24) translate(160 24) translate(1.942 1.818)">
                        <use fill="#F45474" xlink:href="#rodd44muna"/>
                        <use fill="#000" filter="url(#6th97huaxb)" xlink:href="#rodd44muna"/>
                        <path stroke="#FFF" stroke-width="1.667" d="M12.305-.252c.67 0 1.257.242 1.753.74.497.496.739 1.082.739 1.752h0v1.338c0 .67-.242 1.256-.739 1.753-.496.497-1.082.739-1.753.739h0H6.85l-.13 1.601 5.025.223c.662.005 1.24.247 1.733.739.496.496.738 1.082.738 1.752h0v1.048c0 .67-.242 1.256-.738 1.753-.497.496-1.083.738-1.753.738h0-4.866l-.15 2.18 5.616.226c.662.005 1.242.247 1.734.739.497.497.739 1.083.739 1.753h0v1.338c0 .67-.242 1.256-.739 1.753-.496.497-1.082.739-1.753.739h0H1.658c-.67 0-1.256-.242-1.753-.74-.496-.496-.738-1.082-.738-1.752h0V2.24c0-.67.242-1.256.738-1.753C.402-.01.988-.252 1.658-.252h0z"/>
                    </g>
                    <g fill-rule="nonzero" stroke-linejoin="round" transform="translate(-160 -24) translate(160 24) translate(1.942 1.818)">
                        <use fill="#F45474" xlink:href="#eox1gfv2ec"/>
                        <use fill="#000" filter="url(#u60rdniicd)" xlink:href="#eox1gfv2ec"/>
                        <path stroke="#FFF" stroke-width="1.667" d="M20.007-.833c.67 0 1.257.242 1.753.738.497.497.739 1.083.739 1.753h0V20.16c0 .67-.242 1.256-.739 1.753-.496.497-1.082.739-1.753.739h0-2.502c-.67 0-1.256-.242-1.752-.74-.497-.496-.74-1.082-.74-1.752h0V1.658c0-.67.243-1.256.74-1.753.496-.496 1.082-.738 1.752-.738h0z"/>
                    </g>
                    <g fill-rule="nonzero" stroke-linejoin="round" transform="translate(-160 -24) translate(160 24) translate(1.942 1.818)">
                        <use fill="#F45474" xlink:href="#yzi7b5rrme"/>
                        <use fill="#000" filter="url(#lfbiloscqf)" xlink:href="#yzi7b5rrme"/>
                        <path stroke="#FFF" stroke-width="1.667" d="M31.077 5.521c.74-.3 1.443-.402 2.057-.333.625.07 1.169.31 1.6.708.42.054.811.282 1.094.492.535-.053 1 .067 1.392.279.414.223.748.559.992.914.611.063 1.123.373 1.5.805.427.491.654 1.138.664 1.72.138.142.279.317.383.519.101.198.172.417.19.655.28.338.42.721.474 1.104.065.47-.018.938-.121 1.288.189.417.225.777.178 1.11-.046.327-.186.642-.415.976.14.544.1 1.075-.071 1.53-.172.456-.475.842-.878 1.106-.028.358-.126.806-.396 1.208-.233.346-.585.673-1.139.873-.615 1.076-1.638 1.33-2.26 1.378-.228.262-.561.542-1.03.713-.343.125-.766.196-1.286.138-.453.356-.998.506-1.553.492-.526-.012-1.055-.181-1.495-.445-.368.16-.74.195-1.106.15-.574-.072-1.156-.382-1.698-.78-.534-.048-.933-.1-1.283-.25l-.025-.012-.05.189-.574-.632-.057-.059h0l-.026-.032-.373-.41c-.692-.307-1.066-.527-1.335-.94l-.078-.129c-.167-.302-.301-.74-.343-1.408-.329-.25-.727-.513-.758-1.692l-.001-.159v-.446c-.001-.242-.012-.308-.078-.43-.363-.681-.28-1.079-.108-1.633.084-.314.078-.444.065-.583-.057-.629-.069-1.322.568-2.023.153-1.324.428-1.625.72-1.87.466-.943.731-1.486 1.563-1.943.347-.164.404-.211.522-.335.487-.491 1.142-.767 1.76-.853.248-.262.66-.606 1.24-.813.43-.152.954-.234 1.575-.137zm4.89 5.092c-.24-.24-.616-.246-.991-.167-.557.116-1.152.456-1.664.969-.415.416-.715.886-.878 1.347-.134.38-.182.754-.076 1.06.011.05.02.096.027.138l.004.042.152.068c.546.23.878.21 1.195.11l.095-.032c.457-.163.923-.462 1.335-.874.512-.513.852-1.11.968-1.668.079-.375.073-.753-.167-.993z"/>
                    </g>
                    <g fill-rule="nonzero" stroke-linejoin="round" transform="translate(-160 -24) translate(160 24) translate(1.942 1.818)">
                        <use fill="#F45474" xlink:href="#g66t7u9wsg"/>
                        <use fill="#000" filter="url(#xeywmbopsh)" xlink:href="#g66t7u9wsg"/>
                        <path stroke="#FFF" stroke-width="1.667" d="M52.596 5.567c2.1 0 3.56.657 4.46 1.842.841 1.106 1.32 2.983 1.32 5.682h0v7.069c0 .67-.243 1.256-.74 1.753-.496.497-1.082.739-1.752.739h0-2.066c-.67 0-1.256-.242-1.753-.74-.496-.496-.738-1.082-.738-1.752h0v-7.07c0-.623-.025-1.087-.207-1.326-.13-.17-.403-.167-.705-.167-.341 0-.647.15-.93.415-.256.24-.419.495-.419.788h0v7.36c0 .67-.242 1.256-.739 1.753-.496.497-1.082.739-1.752.739h0-2.211c-.67 0-1.257-.242-1.753-.74-.497-.496-.739-1.082-.739-1.752h0V8.35c0-.671.242-1.257.739-1.754.496-.496 1.082-.738 1.753-.738h1.978c.692 0 1.283.24 1.773.715 1.546-.509 2.918-1.006 4.481-1.006z"/>
                    </g>
                    <g fill-rule="nonzero" stroke-linejoin="round" transform="translate(-160 -24) translate(160 24) translate(1.942 1.818)">
                        <use fill="#F45474" xlink:href="#eibvx2au0i"/>
                        <use fill="#000" filter="url(#jzkapbv9tj)" xlink:href="#eibvx2au0i"/>
                        <path stroke="#FFF" stroke-width="1.667" d="M70.75-.542c1.945 0 3.678.216 5.207.644.648.189 1.179.57 1.585 1.152.39.56.586 1.18.586 1.859h0v1.425c0 .677-.278 1.21-.837 1.6-.544.38-1.146.466-1.81.235-1.626-.528-3.106-.798-4.441-.798-.573 0-1.022.063-1.313.266-.18.124-.24.322-.24.559 0 .258.083.479.257.66.243.254.617.434 1.094.577 2.902.85 4.9 1.893 6.038 3.072 1.206 1.25 1.834 2.91 1.834 5 0 2.441-.825 4.246-2.397 5.46-1.495 1.154-3.725 1.773-6.728 1.773-1.88 0-3.584-.314-5.103-.93-.618-.241-1.114-.665-1.477-1.285-.338-.575-.507-1.2-.507-1.876h0v-1.766c1.393-1.861 1.948-1.66 2.415-1.417l.148.077h0l.049.024c1.413.662 2.807.998 4.185.998.657 0 1.167-.074 1.5-.297.206-.137.284-.351.284-.615 0-.285-.035-.524-.183-.683-.205-.22-.596-.388-1.131-.561-2.749-.849-4.71-1.93-5.918-3.2-1.281-1.347-1.931-3.015-1.931-5.011 0-2.183.8-3.888 2.366-5.133 1.486-1.18 3.63-1.81 6.467-1.81z"/>
                    </g>
                    <g fill-rule="nonzero" stroke-linejoin="round" transform="translate(-160 -24) translate(160 24) translate(1.942 1.818)">
                        <use fill="#F45474" xlink:href="#aajgcrks4k"/>
                        <use fill="#000" filter="url(#kqp4qhk5il)" xlink:href="#aajgcrks4k"/>
                        <path stroke="#FFF" stroke-width="1.667" d="M89.796 5.567c2.064 0 3.696.787 4.906 2.344 1.139 1.466 1.746 3.57 1.746 6.344 0 2.714-.631 4.807-1.825 6.308-1.267 1.592-2.878 2.38-4.827 2.38-1.11 0-2.175-.266-3.19-.806l-.275-.154-.065 4.583c-.001.668-.243 1.252-.739 1.747-.396.397-.85.629-1.358.708l-.193.023-2.412.008c-.67 0-1.257-.242-1.753-.74-.397-.396-.63-.85-.709-1.359l-.022-.192-.008-18.412c0-.67.242-1.256.739-1.753.396-.396.85-.629 1.358-.708l.193-.023 2.18-.007c.692 0 1.283.24 1.773.715 1.518-.494 2.901-1.006 4.481-1.006zm-2.036 5.74c-.42 0-.797.17-1.142.482-.285.258-.457.525-.497.905h0v3.16l.009.118c.041.269.225.51.488.749.345.312.722.482 1.142.482.473 0 .846-.2 1.123-.593.37-.524.516-1.32.516-2.355 0-1.05-.136-1.852-.482-2.38-.257-.394-.651-.569-1.157-.569z"/>
                    </g>
                    <g fill-rule="nonzero" stroke-linejoin="round" transform="translate(-160 -24) translate(160 24) translate(1.942 1.818)">
                        <use fill="#F45474" xlink:href="#b0hd9jxtem"/>
                        <use fill="#000" filter="url(#zlx1ua4c2n)" xlink:href="#b0hd9jxtem"/>
                        <path stroke="#FFF" stroke-width="1.667" d="M105.39 5.567c2.746 0 4.781.767 6.152 2.208 1.357 1.426 2.088 3.55 2.099 6.421 0 .708-.263 1.306-.794 1.793-.405.37-.872.593-1.401.67l-.202.021-6.879.007c.098.205.235.327.397.418.505.281 1.304.389 2.373.389.747 0 1.658-.112 2.733-.33.662-.154 1.262-.018 1.8.409.475.377.738.86.797 1.445.014 1.493-.228 2.03-.608 2.532-.436.577-.994.916-1.666 1.03-1.23.241-2.54.362-3.93.362-3.008 0-5.301-.771-6.916-2.238-1.64-1.49-2.498-3.627-2.498-6.45 0-2.784.763-4.905 2.213-6.398 1.457-1.5 3.553-2.29 6.33-2.29zm.145 5.303c-.479 0-.866.076-1.113.323-.157.157-.245.395-.27.724h0l2.653-.159-.036-.138c-.052-.176-.127-.323-.232-.436-.223-.24-.573-.314-1.002-.314z"/>
                    </g>
                    <g fill-rule="nonzero" stroke-linejoin="round" transform="translate(-160 -24) translate(160 24) translate(1.942 1.818)">
                        <use fill="#F45474" xlink:href="#i6zxv9xrgo"/>
                        <use fill="#000" filter="url(#4i0zifsynp)" xlink:href="#i6zxv9xrgo"/>
                        <path stroke="#FFF" stroke-width="1.667" d="M118.742 5.858c.67 0 1.256.242 1.753.738.298.298.504.628.621.99l.021.075.025-.02c1.094-.868 2.36-1.424 3.822-1.668l.34-.05c.712-.093 1.334.117 1.862.644.492.493.738 1.087.738 1.782h0v.756c0 .672-.233 1.248-.7 1.73-.443.456-.994.73-1.655.813-1.283.167-2.318.632-3.087 1.426-.738.763-1.103 1.69-1.103 2.78h0v4.306c0 .67-.242 1.256-.739 1.753-.496.497-1.082.739-1.753.739h0-2.356c-.67 0-1.256-.242-1.753-.74-.497-.496-.739-1.082-.739-1.752h0V8.35c0-.671.242-1.257.739-1.754.497-.496 1.083-.738 1.753-.738h0z"/>
                    </g>
                    <g fill-rule="nonzero" stroke-linejoin="round" transform="translate(-160 -24) translate(160 24) translate(1.942 1.818)">
                        <use fill="#F45474" xlink:href="#5wmmppm12q"/>
                        <use fill="#000" filter="url(#tn091kp5kr)" xlink:href="#5wmmppm12q"/>
                        <path stroke="#FFF" stroke-width="1.667" d="M146.393 5.567c1.98 0 3.386.588 4.286 1.646.858 1.011 1.347 2.66 1.347 5.005h0v7.942c0 .67-.242 1.256-.739 1.753-.496.497-1.082.739-1.752.739h0-2.066c-.677 0-1.26-.247-1.747-.748-.48-.494-.715-1.077-.715-1.744h0v-7.942c0-.37.019-.665-.098-.805-.62-.049-.816.028-1.001.165h0l-.173 8.582c0 .67-.242 1.256-.738 1.753-.497.497-1.083.739-1.753.739h0-2.066c-.677 0-1.26-.247-1.747-.748-.48-.494-.715-1.077-.715-1.744h0v-7.942c0-.37.019-.665-.098-.805-.62-.049-.816.028-1.001.165h0l-.173 8.582c0 .67-.242 1.256-.738 1.753-.497.497-1.083.739-1.753.739h0-2.211c-.67 0-1.256-.242-1.753-.74-.497-.496-.739-1.082-.739-1.752h0V8.35c0-.671.242-1.257.739-1.754.497-.496 1.083-.738 1.753-.738h1.774c.693 0 1.283.24 1.773.715.107.103.202.211.288.325l.109.158.275-.198c.189-.134.382-.268.582-.393l.304-.181c.866-.485 1.716-.717 2.546-.717 1.071 0 1.92.207 2.557.578.432.252.86.636 1.271 1.165 1.473-1.188 2.844-1.743 4.172-1.743z"/>
                    </g>
                </g>
            </g>
        </g>
    </g>
</svg>
